<svg version="1.1" xmlns="http://www.w3.org/2000/svg" xmlns:xlink="http://www.w3.org/1999/xlink" x="0px" y="0px" viewBox="0 0 1000 1000" enable-background="new 0 0 1000 1000" xml:space="preserve">
<g><g transform="translate(0.000000,511.000000) scale(0.100000,-0.100000)"><path d="M3038.4,4965.9c-10.2-26.5-38.8-114.3-61.3-194l-42.9-149l-116.4-32.7c-216.4-59.2-251.1-73.5-263.4-102.1c-18.4-51,32.7-83.7,208.3-132.7l173.5-49l30.6-112.3c63.3-222.5,79.6-255.2,132.7-255.2c44.9,0,55.1,18.4,102.1,183.8l53.1,181.7l181.7,53.1c149,42.9,185.8,61.3,189.9,93.9c8.2,59.2-22.5,77.6-208.3,126.6c-87.8,24.5-161.3,44.9-163.3,49c-4.1,4.1-26.5,79.6-51,169.5c-26.6,89.8-55.1,175.6-67.4,189.9C3103.7,5025.1,3060.8,5014.9,3038.4,4965.9z"/><path d="M8971.7,4271.7c-16.3-36.7-38.8-116.4-53.1-173.5l-24.5-108.2l-145-40.8c-204.2-59.2-198.1-57.2-212.4-91.9c-18.4-49,10.2-65.3,187.9-116.4l161.3-47l47-161.3c69.4-247.1,124.5-253.2,189.9-24.5c24.5,79.6,47,155.2,51,167.4s73.5,38.8,153.1,61.3c171.5,44.9,216.4,71.5,198.1,118.4c-14.3,36.8-8.2,34.7-208.3,91.9l-142.9,40.8l-38.8,149c-20.4,81.7-47,161.3-57.2,175.6C9041.1,4355.4,8998.3,4339.1,8971.7,4271.7z"/><path d="M1155.9,3924.6c-18.4-14.3-63.3-134.8-98-265.4l-65.3-238.9l-116.4-32.7c-383.9-110.3-390-112.3-402.2-165.4c-6.1-26.5-2-61.3,10.2-75.5c12.3-16.3,130.7-57.2,265.4-96l240.9-67.4l67.4-240.9c38.8-134.8,79.6-253.2,96-265.4c14.3-12.2,49-16.3,75.5-10.2c53.1,12.3,55.1,18.4,165.4,402.2l32.7,114.3l198,55.1c265.4,73.5,304.2,89.8,316.5,134.8c20.4,75.5-38.8,114.3-261.3,173.5c-120.5,30.6-228.7,69.4-243,83.7c-14.3,14.3-53.1,122.5-83.7,243c-40.8,151.1-71.5,226.6-100,247.1C1202.8,3955.2,1196.7,3955.2,1155.9,3924.6z"/><path d="M5059.7,3489.7c-385.9-53.1-702.4-153.1-1061.7-338.9c-298.1-155.2-534.9-332.8-769.7-575.8c-498.2-520.6-749.3-1110.7-773.8-1821.3c-10.2-228.7-4.1-355.3,20.4-504.3c140.9-863.7,698.3-1539.5,1451.7-1762c226.6-67.4,608.4-91.9,835.1-51.1c314.4,55.1,647.2,222.6,816.7,408.4c204.2,226.6,300.2,445.1,314.4,724.8c8.2,161.3,2,202.1-47,336.9c-167.4,467.6-177.6,488-279.7,586c-112.3,108.2-247,159.3-428.8,159.3c-87.8,0-159.3,4.1-159.3,10.2c0,34.7,130.7,228.7,185.8,273.6c183.8,155.2,436.9,226.6,753.4,210.3c381.8-18.4,626.8-132.7,920.8-422.7c149.1-149,187.8-204.2,279.7-387.9c118.4-243,155.2-373.6,189.9-661.5c53.1-453.3-81.7-1016.8-334.8-1394.5c-361.4-539-845.3-880-1500.7-1053.6c-230.7-59.2-255.2-61.3-677.9-63.3c-479.8-2-602.3,14.3-980,134.8c-812.6,257.3-1494.6,871.8-1888.6,1696.7c-134.8,283.8-218.5,532.9-289.9,869.8c-53.1,243-57.2,287.9-57.2,792.2c0,510.4-2,537-42.9,592.1c-132.7,177.6-426.7,112.3-479.8-106.2c-32.7-142.9-44.9-698.3-20.4-957.6c149.1-1508.9,1069.9-2803.3,2360.3-3317.9c508.4-202.1,800.4-255.2,1388.4-255.2c387.9,0,477.8,6.1,663.6,47c831,177.6,1455.8,577.8,1923.3,1231.2c494.1,688.1,630.9,1662,343,2450.1c-298.1,814.7-1037.2,1363.9-1837.6,1363.9c-475.7,0-837.1-136.8-1123-426.7c-322.6-326.7-426.7-745.2-275.6-1106.6c30.6-71.5,71.5-185.8,93.9-255.2c49-159.3,136.8-279.7,259.3-357.3c126.6-79.6,234.8-106.2,377.7-93.9c67.4,6.2,116.4,2.1,116.4-8.1c0-49-87.8-181.7-169.5-257.3c-192-177.6-400.2-238.9-749.3-224.6c-271.5,10.2-432.9,55.1-630.9,171.5c-500.2,296.1-777.9,835.1-777.9,1506.8c0,602.3,212.3,1112.8,643.2,1551.7c367.5,375.7,755.4,586,1298.6,708.5c183.8,40.8,265.4,47,610.5,47c330.8-2,432.9-10.2,606.4-47c831-179.7,1500.7-639.1,1984.6-1361.9c441-657.5,659.5-1510.9,592.1-2301.1c-20.4-242.9-18.4-269.5,16.3-336.9c102.1-196,381.8-191.9,483.9,4.1c34.7,69.4,40.8,130.7,49,479.8c10.2,447.1-12.2,704.4-89.8,1057.6c-406.3,1831.5-1909,3079-3693.5,3064.7C5363.9,3516.2,5165.9,3504,5059.7,3489.7z"/><path d="M7368.9-2945.9c-10.2-20.4-34.7-96-55.1-169.5s-44.9-138.8-57.2-147c-12.2-8.1-83.7-28.6-159.2-47c-240.9-59.2-238.9-120.5,4.1-194l171.5-53.1l47-161.3c69.4-245,124.5-251.1,189.9-22.5c24.5,79.6,47,155.2,51,167.4c4.1,12.3,81.7,42.9,173.6,69.4c243,69.4,245,130.7,6.1,194c-77.6,20.4-149,44.9-161.3,53.1c-12.3,10.2-38.8,79.6-59.2,155.2c-20.4,77.6-44.9,151.1-57.2,165.4C7434.3-2901,7391.4-2905.1,7368.9-2945.9z"/><path d="M1635.7-3233.8c-14.3-10.2-57.2-128.6-96-267.5c-38.8-138.8-75.6-255.2-81.7-261.3c-4.1-6.1-116.4-40.8-245-77.6c-257.3-71.5-298.1-93.9-298.1-163.4c0-67.4,24.5-79.6,285.8-153.1c128.6-36.7,243-73.5,253.2-81.7c8.2-10.2,47-124.6,85.8-257.3c75.5-271.6,122.5-330.8,208.3-275.6c16.3,8.2,61.3,134.8,104.1,279.7l75.6,261.4l243,69.4c234.8,65.3,316.5,106.2,316.5,157.2c0,61.3-65.3,96-304.2,163.4c-138.8,36.7-253.2,71.4-255.2,75.5c-4.1,4.1-36.8,116.4-73.5,251.1c-36.7,134.8-77.6,257.3-87.8,271.6C1743.9-3213.4,1674.5-3209.3,1635.7-3233.8z"/></g></g>
</svg>