<svg version="1.1" id="Layer_1" xmlns:serif="http://www.serif.com/"
	 xmlns="http://www.w3.org/2000/svg" xmlns:xlink="http://www.w3.org/1999/xlink" x="100px" y="100px" width="400px" height="400px"
	 viewBox="50 50 400 400" enable-background="new 50 50 400 400" xml:space="preserve">
<path d="M400,93.75c0-4.975-1.975-9.744-5.494-13.256C390.994,76.975,386.225,75,381.25,75c-47.318,0-215.181,0-262.5,0
	c-4.975,0-9.744,1.975-13.256,5.494C101.975,84.006,100,88.775,100,93.75c0,16.575,0,43.75,0,43.75c0,3.45,2.8,6.25,6.25,6.25h287.5
	c3.45,0,6.25-2.8,6.25-6.25V93.75z M387.5,93.75v37.5h-275v-37.5c0-1.656,0.656-3.25,1.831-4.419
	c1.169-1.175,2.763-1.831,4.419-1.831c47.319,0,215.182,0,262.5,0c1.656,0,3.25,0.656,4.419,1.831
	C386.844,90.5,387.5,92.094,387.5,93.75z"/>
<path d="M110.669,104.419l18.75-18.75c2.438-2.438,2.438-6.4,0-8.838s-6.4-2.438-8.838,0l-18.75,18.75
	c-2.438,2.438-2.438,6.4,0,8.838S108.231,106.856,110.669,104.419z"/>
<path d="M116.919,141.919l56.25-56.25c2.438-2.438,2.438-6.4,0-8.838s-6.4-2.438-8.838,0l-56.25,56.25
	c-2.438,2.438-2.438,6.4,0,8.838S114.481,144.356,116.919,141.919z"/>
<path d="M160.669,141.919l56.25-56.25c2.438-2.438,2.438-6.4,0-8.838s-6.4-2.438-8.838,0l-56.25,56.25
	c-2.438,2.438-2.438,6.4,0,8.838S158.231,144.356,160.669,141.919z"/>
<path d="M204.419,141.919l56.25-56.25c2.438-2.438,2.438-6.4,0-8.838s-6.4-2.438-8.838,0l-56.25,56.25
	c-2.438,2.438-2.438,6.4,0,8.838S201.981,144.356,204.419,141.919L204.419,141.919z"/>
<path d="M248.169,141.919l56.25-56.25c2.438-2.438,2.438-6.4,0-8.838s-6.4-2.438-8.838,0l-56.25,56.25
	c-2.438,2.438-2.438,6.4,0,8.838S245.731,144.356,248.169,141.919L248.169,141.919z"/>
<path d="M291.919,141.919l56.25-56.25c2.438-2.438,2.438-6.4,0-8.838s-6.4-2.438-8.838,0l-56.25,56.25
	c-2.438,2.438-2.438,6.4,0,8.838S289.481,144.356,291.919,141.919z"/>
<path d="M335.669,141.919l50-50c2.438-2.438,2.438-6.4,0-8.838s-6.4-2.438-8.838,0l-50,50c-2.438,2.438-2.438,6.4,0,8.838
	S333.231,144.356,335.669,141.919z"/>
<path d="M379.419,141.919l18.75-18.75c2.438-2.438,2.438-6.4,0-8.838s-6.4-2.438-8.838,0l-18.75,18.75
	c-2.438,2.438-2.438,6.4,0,8.838S376.981,144.356,379.419,141.919z"/>
<path fill="#FFFFFF" d="M266.667,211.458"/>
<path fill="#FFFFFF" d="M266.667,244.793"/>
<path fill="#FFFFFF" d="M266.667,211.459"/>
<path d="M393.75,131.25h-287.5c-3.45,0-6.25,2.8-6.25,6.25v168.75c0,10.36,8.39,18.75,18.75,18.75h262.5
	c10.36,0,18.75-8.39,18.75-18.75V137.5C400,134.05,397.2,131.25,393.75,131.25z M300,244.79h-33.33v33.33h-33.34v-33.33H200v-33.33
	h33.33v-33.34h33.34v33.34H300V244.79z"/>
</svg>
